<svg xmlns="http://www.w3.org/2000/svg" viewBox="0 0 24 24" fill="none">
  <symbol id="icon-network" viewBox="0 0 24 24">
    <circle cx="7" cy="6.5" r="2.2" stroke="currentColor" stroke-width="1.6" />
    <circle cx="17" cy="6" r="2.2" stroke="currentColor" stroke-width="1.6" />
    <circle cx="12.5" cy="17" r="2.6" stroke="currentColor" stroke-width="1.6" />
    <path d="M8.4 7.9l2.7 3.6m4.1-4.2l-2.4 3.6m-.3 1.9V14m0 1l-2.7-2.5" stroke="currentColor" stroke-width="1.6" stroke-linecap="round" stroke-linejoin="round" />
  </symbol>

  <symbol id="icon-truck" viewBox="0 0 24 24">
    <path d="M3.8 7.2a1 1 0 0 1 1-1h7.7a1 1 0 0 1 1 1v5.8c0 1-.8 1.8-1.8 1.8H5.6a1.8 1.8 0 0 1-1.8-1.8V7.2Z" stroke="currentColor" stroke-width="1.6" stroke-linejoin="round" />
    <path d="M13.5 7.2H16a1.6 1.6 0 0 1 1.4.8l1.3 2.5c.1.2.2.4.2.6v2.6a1 1 0 0 1-1 1h-2.5" stroke="currentColor" stroke-width="1.6" stroke-linecap="round" stroke-linejoin="round" />
    <circle cx="8.1" cy="15.8" r="1.4" stroke="currentColor" stroke-width="1.6" />
    <circle cx="15.3" cy="15.8" r="1.4" stroke="currentColor" stroke-width="1.6" />
    <path d="M16.2 10.5h2.4" stroke="currentColor" stroke-width="1.6" stroke-linecap="round" />
  </symbol>

  <symbol id="icon-people" viewBox="0 0 24 24">
    <circle cx="9" cy="8" r="2.6" stroke="currentColor" stroke-width="1.6" />
    <circle cx="16.5" cy="9" r="2.3" stroke="currentColor" stroke-width="1.6" />
    <path d="M4.8 17.7c.5-2.2 2.6-3.7 5.1-3.7s4.6 1.5 5.1 3.7M14 14.7c.6-.6 1.4-.9 2.3-.9 1.4 0 2.7.8 3.2 2.1" stroke="currentColor" stroke-width="1.6" stroke-linecap="round" stroke-linejoin="round" />
  </symbol>

  <symbol id="icon-cube" viewBox="0 0 24 24">
    <path d="M6.5 7.2l5.7-3 5.7 3m-11.4 0L6.5 15l5.7 3.2M17.9 7.2L18 15l-5.8 3.2M12.2 4v3.9m0 0l5.7 3.3m-5.7-3.3L6.5 11" stroke="currentColor" stroke-width="1.6" stroke-linecap="round" stroke-linejoin="round" />
  </symbol>

  <symbol id="icon-bolt" viewBox="0 0 24 24">
    <path d="M12.8 3.5L7.5 13.2a.5.5 0 0 0 .44.75H12l-.8 6.5 5.3-9.7a.5.5 0 0 0-.44-.75H12l.8-6.5Z" stroke="currentColor" stroke-width="1.6" stroke-linecap="round" stroke-linejoin="round" />
  </symbol>

  <symbol id="icon-plug" viewBox="0 0 24 24">
    <path d="M9 3.5v4M15 3.5v4M7.8 9H16a1.5 1.5 0 0 1 1.5 1.5v2.7a4.5 4.5 0 0 1-4.5 4.5H12v2.3m-1.8-10h-2a1.2 1.2 0 0 0-1.2 1.2v1.5c0 .7.5 1.2 1.2 1.2h8" stroke="currentColor" stroke-width="1.6" stroke-linecap="round" stroke-linejoin="round" />
  </symbol>

  <symbol id="icon-governance" viewBox="0 0 24 24">
    <rect x="5" y="5" width="14" height="14" rx="2.6" stroke="currentColor" stroke-width="1.6" />
    <path d="M8 12h8M12 8v8" stroke="currentColor" stroke-width="1.6" stroke-linecap="round" />
  </symbol>

  <symbol id="icon-shield" viewBox="0 0 24 24">
    <path d="M12 4.2 6.5 6.3v5.6c0 2.5 1.5 4.8 3.8 5.9l1.7.8 1.7-.8c2.3-1.1 3.8-3.4 3.8-5.9V6.3L12 4.2Z" stroke="currentColor" stroke-width="1.6" stroke-linecap="round" stroke-linejoin="round" />
    <path d="M10.4 12.7 12 14.3l2.5-2.6" stroke="currentColor" stroke-width="1.6" stroke-linecap="round" stroke-linejoin="round" />
  </symbol>

  <symbol id="icon-map" viewBox="0 0 24 24">
    <path d="M10.2 4.8 6.5 6.3v12.9l3.7-1.5 3.6 1.5 3.7-1.5V4.8l-3.7 1.5-3.6-1.5Z" stroke="currentColor" stroke-width="1.6" stroke-linejoin="round" />
    <path d="M13.8 6.3v12.9M10.2 6.3v7.1" stroke="currentColor" stroke-width="1.6" stroke-linecap="round" />
  </symbol>

  <symbol id="icon-growth" viewBox="0 0 24 24">
    <path d="M4.5 16.5 9 12l3 2.8 4.6-5.3 2.4 2.1" stroke="currentColor" stroke-width="1.6" stroke-linecap="round" stroke-linejoin="round" />
    <path d="M5 19.5h14M8 10V5m4 5V6m4 4V7" stroke="currentColor" stroke-width="1.6" stroke-linecap="round" />
  </symbol>

  <symbol id="icon-handshake" viewBox="0 0 24 24">
    <path d="M7.5 13.2 5 10.8a1.7 1.7 0 0 1 .1-2.5l1.7-1.5a1.7 1.7 0 0 1 2.2 0l1.2 1L13 6a1.7 1.7 0 0 1 2.3.1l1.3 1.2a1.7 1.7 0 0 1-.1 2.5l-1.4 1.3m-4.1-2.9 2.2 2" stroke="currentColor" stroke-width="1.6" stroke-linecap="round" stroke-linejoin="round" />
    <path d="M9.1 12.1 11 14a1.7 1.7 0 0 0 2.4 0l1.2-1.2" stroke="currentColor" stroke-width="1.6" stroke-linecap="round" stroke-linejoin="round" />
    <path d="M9.9 15.8 11 17a1.4 1.4 0 0 0 2 0l.8-.8M9 17.9l.9 1a1.4 1.4 0 0 0 2 0l.4-.4" stroke="currentColor" stroke-width="1.6" stroke-linecap="round" stroke-linejoin="round" />
  </symbol>

  <symbol id="icon-calculator" viewBox="0 0 24 24">
    <rect x="6" y="4" width="12" height="16" rx="2.2" stroke="currentColor" stroke-width="1.6" />
    <path d="M8.5 8.5h7M9.2 12h1.3m-1.3 3h1.3m3.2-3h1.3m-1.3 3h1.3" stroke="currentColor" stroke-width="1.6" stroke-linecap="round" />
  </symbol>

  <symbol id="icon-document" viewBox="0 0 24 24">
    <path d="M8.2 4h5.3l4 4v10.2c0 1-.8 1.8-1.8 1.8H8.2c-1 0-1.8-.8-1.8-1.8V5.8C6.4 4.8 7.2 4 8.2 4Z" stroke="currentColor" stroke-width="1.6" stroke-linejoin="round" />
    <path d="M13.2 4v3.8c0 .6.4 1 1 1H18M9.2 12h5.6M9.2 15h3.2" stroke="currentColor" stroke-width="1.6" stroke-linecap="round" />
  </symbol>

  <symbol id="icon-chat" viewBox="0 0 24 24">
    <path d="M6.5 6.5h11a1.5 1.5 0 0 1 1.5 1.5v6.7a1.5 1.5 0 0 1-1.5 1.5H10l-3.6 2.3a.6.6 0 0 1-.9-.5v-3.7a1.5 1.5 0 0 1-1-1.4V8a1.5 1.5 0 0 1 1.5-1.5Z" stroke="currentColor" stroke-width="1.6" stroke-linecap="round" stroke-linejoin="round" />
    <path d="M9 10.2h6m-6 2.6h4" stroke="currentColor" stroke-width="1.6" stroke-linecap="round" />
  </symbol>

  <symbol id="icon-clock" viewBox="0 0 24 24">
    <circle cx="12" cy="12" r="7" stroke="currentColor" stroke-width="1.6" />
    <path d="M12 8v4l2.5 1.6" stroke="currentColor" stroke-width="1.6" stroke-linecap="round" stroke-linejoin="round" />
  </symbol>

  <symbol id="icon-leaf" viewBox="0 0 24 24">
    <path d="M17.6 6.4C14 6 10.5 6.8 8 9.3c-3 3-2.8 7.6.4 9.9.5.3 1 .4 1.6.3 4-.6 7.8-3.5 8.8-8.7.2-1 .2-2-.1-3-.1-.5-.6-1-.1-1.4.4-.4.8-.9 1.1-1.4-1.1-.7-1.6-1.1-2.1-1.1Z" stroke="currentColor" stroke-width="1.6" stroke-linecap="round" stroke-linejoin="round" />
    <path d="M9.5 12.5c1.6.2 3.2 1 4.5 2.3" stroke="currentColor" stroke-width="1.6" stroke-linecap="round" />
  </symbol>

  <symbol id="icon-radar" viewBox="0 0 24 24">
    <circle cx="12" cy="12" r="7" stroke="currentColor" stroke-width="1.6" />
    <path d="M12 5v7l4 2" stroke="currentColor" stroke-width="1.6" stroke-linecap="round" stroke-linejoin="round" />
    <path d="M9.5 11.5 12 13" stroke="currentColor" stroke-width="1.6" stroke-linecap="round" />
  </symbol>
</svg>
